<svg width="52" height="52" viewBox="0 0 52 52" fill="none" xmlns="http://www.w3.org/2000/svg">
<g clip-path="url(#clip0_79_863)">
<path d="M35.75 21.125C35.75 20.694 35.9212 20.2807 36.226 19.976C36.5307 19.6712 36.944 19.5 37.375 19.5H40.625C41.056 19.5 41.4693 19.6712 41.774 19.976C42.0788 20.2807 42.25 20.694 42.25 21.125V24.375C42.25 24.806 42.0788 25.2193 41.774 25.524C41.4693 25.8288 41.056 26 40.625 26H37.375C36.944 26 36.5307 25.8288 36.226 25.524C35.9212 25.2193 35.75 24.806 35.75 24.375V21.125ZM26 21.125C26 20.694 26.1712 20.2807 26.476 19.976C26.7807 19.6712 27.194 19.5 27.625 19.5H30.875C31.306 19.5 31.7193 19.6712 32.024 19.976C32.3288 20.2807 32.5 20.694 32.5 21.125V24.375C32.5 24.806 32.3288 25.2193 32.024 25.524C31.7193 25.8288 31.306 26 30.875 26H27.625C27.194 26 26.7807 25.8288 26.476 25.524C26.1712 25.2193 26 24.806 26 24.375V21.125ZM9.75 30.875C9.75 30.444 9.92121 30.0307 10.226 29.726C10.5307 29.4212 10.944 29.25 11.375 29.25H14.625C15.056 29.25 15.4693 29.4212 15.774 29.726C16.0788 30.0307 16.25 30.444 16.25 30.875V34.125C16.25 34.556 16.0788 34.9693 15.774 35.274C15.4693 35.5788 15.056 35.75 14.625 35.75H11.375C10.944 35.75 10.5307 35.5788 10.226 35.274C9.92121 34.9693 9.75 34.556 9.75 34.125V30.875ZM19.5 30.875C19.5 30.444 19.6712 30.0307 19.976 29.726C20.2807 29.4212 20.694 29.25 21.125 29.25H24.375C24.806 29.25 25.2193 29.4212 25.524 29.726C25.8288 30.0307 26 30.444 26 30.875V34.125C26 34.556 25.8288 34.9693 25.524 35.274C25.2193 35.5788 24.806 35.75 24.375 35.75H21.125C20.694 35.75 20.2807 35.5788 19.976 35.274C19.6712 34.9693 19.5 34.556 19.5 34.125V30.875Z" fill="#1331A1"/>
<path d="M11.375 0C11.806 0 12.2193 0.171205 12.524 0.475951C12.8288 0.780698 13 1.19402 13 1.625V3.25H39V1.625C39 1.19402 39.1712 0.780698 39.476 0.475951C39.7807 0.171205 40.194 0 40.625 0C41.056 0 41.4693 0.171205 41.774 0.475951C42.0788 0.780698 42.25 1.19402 42.25 1.625V3.25H45.5C47.2239 3.25 48.8772 3.93482 50.0962 5.15381C51.3152 6.37279 52 8.02609 52 9.75V45.5C52 47.2239 51.3152 48.8772 50.0962 50.0962C48.8772 51.3152 47.2239 52 45.5 52H6.5C4.77609 52 3.12279 51.3152 1.90381 50.0962C0.68482 48.8772 0 47.2239 0 45.5V9.75C0 8.02609 0.68482 6.37279 1.90381 5.15381C3.12279 3.93482 4.77609 3.25 6.5 3.25H9.75V1.625C9.75 1.19402 9.92121 0.780698 10.226 0.475951C10.5307 0.171205 10.944 0 11.375 0ZM3.25 13V45.5C3.25 46.362 3.59241 47.1886 4.2019 47.7981C4.8114 48.4076 5.63805 48.75 6.5 48.75H45.5C46.362 48.75 47.1886 48.4076 47.7981 47.7981C48.4076 47.1886 48.75 46.362 48.75 45.5V13H3.25Z" fill="#1331A1"/>
</g>
<defs>
<clipPath id="clip0_79_863">
<rect width="52" height="52" fill="white"/>
</clipPath>
</defs>
</svg>
