<svg width="50" height="50" viewBox="0 0 50 50" fill="none" xmlns="http://www.w3.org/2000/svg">
<path d="M3.125 9.375C3.125 8.5462 3.45424 7.75134 4.04029 7.16529C4.62634 6.57924 5.4212 6.25 6.25 6.25H43.75C44.5788 6.25 45.3737 6.57924 45.9597 7.16529C46.5458 7.75134 46.875 8.5462 46.875 9.375H3.125ZM25 34.375C26.6576 34.375 28.2473 33.7165 29.4194 32.5444C30.5915 31.3723 31.25 29.7826 31.25 28.125C31.25 26.4674 30.5915 24.8777 29.4194 23.7056C28.2473 22.5335 26.6576 21.875 25 21.875C23.3424 21.875 21.7527 22.5335 20.5806 23.7056C19.4085 24.8777 18.75 26.4674 18.75 28.125C18.75 29.7826 19.4085 31.3723 20.5806 32.5444C21.7527 33.7165 23.3424 34.375 25 34.375Z" fill="#1331A1"/>
<path d="M0 15.625C0 14.7962 0.32924 14.0013 0.915291 13.4153C1.50134 12.8292 2.2962 12.5 3.125 12.5H46.875C47.7038 12.5 48.4987 12.8292 49.0847 13.4153C49.6708 14.0013 50 14.7962 50 15.625V40.625C50 41.4538 49.6708 42.2487 49.0847 42.8347C48.4987 43.4208 47.7038 43.75 46.875 43.75H3.125C2.2962 43.75 1.50134 43.4208 0.915291 42.8347C0.32924 42.2487 0 41.4538 0 40.625V15.625ZM9.375 15.625C9.375 17.2826 8.71652 18.8723 7.54442 20.0444C6.37232 21.2165 4.7826 21.875 3.125 21.875V34.375C4.7826 34.375 6.37232 35.0335 7.54442 36.2056C8.71652 37.3777 9.375 38.9674 9.375 40.625H40.625C40.625 38.9674 41.2835 37.3777 42.4556 36.2056C43.6277 35.0335 45.2174 34.375 46.875 34.375V21.875C45.2174 21.875 43.6277 21.2165 42.4556 20.0444C41.2835 18.8723 40.625 17.2826 40.625 15.625H9.375Z" fill="#1331A1"/>
</svg>
