<svg width="58" height="58" viewBox="0 0 58 58" fill="none" xmlns="http://www.w3.org/2000/svg">
<g clip-path="url(#clip0_79_871)">
<path fill-rule="evenodd" clip-rule="evenodd" d="M11.2375 40.6C11.4063 40.3749 11.6253 40.1922 11.8769 40.0664C12.1286 39.9405 12.4061 39.875 12.6875 39.875H21.75C22.2307 39.875 22.6917 40.066 23.0316 40.4059C23.3715 40.7458 23.5625 41.2068 23.5625 41.6875C23.5625 42.1682 23.3715 42.6292 23.0316 42.9691C22.6917 43.309 22.2307 43.5 21.75 43.5H13.5938L5.4375 54.375H52.5625L44.4062 43.5H36.25C35.7693 43.5 35.3083 43.309 34.9684 42.9691C34.6285 42.6292 34.4375 42.1682 34.4375 41.6875C34.4375 41.2068 34.6285 40.7458 34.9684 40.4059C35.3083 40.066 35.7693 39.875 36.25 39.875H45.3125C45.5939 39.875 45.8714 39.9405 46.1231 40.0664C46.3748 40.1922 46.5937 40.3749 46.7625 40.6L57.6375 55.1C57.8395 55.3693 57.9624 55.6895 57.9927 56.0247C58.0229 56.36 57.9592 56.697 57.8086 56.9981C57.6581 57.2991 57.4267 57.5523 57.1404 57.7293C56.8541 57.9063 56.5241 58 56.1875 58H1.8125C1.4759 58 1.14594 57.9063 0.859613 57.7293C0.573282 57.5523 0.341885 57.2991 0.191352 56.9981C0.0408182 56.697 -0.0229042 56.36 0.0073246 56.0247C0.0375534 55.6895 0.160539 55.3693 0.362501 55.1L11.2375 40.6Z" fill="#1331A1"/>
<path fill-rule="evenodd" clip-rule="evenodd" d="M14.5 14.5001C14.5003 11.7097 15.3057 8.9786 16.8196 6.63457C18.3336 4.29053 20.4917 2.43312 23.0351 1.28521C25.5785 0.137297 28.3991 -0.252352 31.1584 0.163017C33.9177 0.578385 36.4986 1.78113 38.5914 3.62692C40.6841 5.47271 42.1998 7.88315 42.9566 10.569C43.7133 13.2549 43.6791 16.102 42.8578 18.7689C42.0366 21.4357 40.4633 23.809 38.3267 25.6038C36.1901 27.3987 33.581 28.5389 30.8125 28.8877V48.9376C30.8125 49.4183 30.6215 49.8793 30.2816 50.2192C29.9417 50.5592 29.4807 50.7501 29 50.7501C28.5193 50.7501 28.0583 50.5592 27.7184 50.2192C27.3785 49.8793 27.1875 49.4183 27.1875 48.9376V28.8914C23.682 28.4497 20.4584 26.7433 18.1222 24.0927C15.7859 21.4421 14.4979 18.0333 14.5 14.5001Z" fill="#1331A1"/>
</g>
<defs>
<clipPath id="clip0_79_871">
<rect width="58" height="58" fill="white"/>
</clipPath>
</defs>
</svg>
