<svg width="242" height="129" viewBox="0 0 242 129" fill="none" xmlns="http://www.w3.org/2000/svg">
<g clip-path="url(#clip0_198_313)">
<mask id="mask0_198_313" style="mask-type:luminance" maskUnits="userSpaceOnUse" x="0" y="0" width="242" height="129">
<path d="M0 129H242V0H0V129Z" fill="white"/>
</mask>
<g mask="url(#mask0_198_313)">
<path d="M152.678 2.29197C149.006 1.42861 145.316 0.609883 141.502 0.0535507C141.358 0.0315355 141.198 0.0226102 141.056 0C135.637 3.99607 130.646 8.40626 126.154 13.1449C131.127 12.4154 136.208 11.9525 141.394 11.7657C159.504 11.1028 176.724 14.0666 192.267 19.7132C181.055 12.0013 167.526 5.9227 152.678 2.29197Z" fill="#1331A1"/>
<path d="M144.603 42.1044C165.101 32.4438 186.563 28.3633 206.813 29.2534C189.38 21.5641 169.371 17.5187 148.221 18.2844C137.794 18.6671 127.723 20.198 118.186 22.7167C113.427 29.0974 109.496 35.9591 106.51 43.1807C111.109 47.6981 116.127 51.9511 121.528 55.8722C128.57 50.6701 136.279 46.0331 144.603 42.1044Z" fill="#1331A1"/>
<path d="M118.186 22.7168C110.255 24.8082 102.679 27.5845 95.5486 30.9665C102.767 40.151 111.467 48.5746 121.52 55.8724H121.529C116.127 51.947 111.11 47.6982 106.51 43.1815C109.496 35.9634 113.427 29.1017 118.186 22.7168Z" fill="#1331A1"/>
<path d="M121.538 55.8764C116.137 51.9607 111.109 47.6974 106.51 43.1807C102.242 53.4958 99.9158 64.5445 99.8801 76.0079C106.136 68.6696 113.391 61.9062 121.538 55.8764Z" fill="#1331A1"/>
<path d="M223.479 118.232C223.228 118.237 222.979 118.246 222.722 118.246C212.32 118.246 204.781 111.598 204.781 102.44V102.235C204.781 93.4736 212.338 86.612 221.981 86.612C222.498 86.612 222.998 86.6292 223.479 86.6566V76.132C223.032 76.1143 222.57 76.1143 222.106 76.1143C203.211 76.1143 188.952 87.4218 188.952 102.44V102.631C188.952 117.28 203.407 128.756 221.865 128.756C222.427 128.756 222.943 128.743 223.479 128.729V118.232Z" fill="#1331A1"/>
<path d="M32.4526 96.1783C21.3027 93.8031 19.7344 92.6636 19.7344 89.1442V88.9841C19.7344 86.3892 22.5952 84.3246 28.0271 84.3246C30.7985 84.3246 34.4178 85.0772 36.9581 86.0162V74.7925C34.5959 74.3837 30.9689 73.916 28.2149 73.916C15.033 73.916 5.64326 80.3458 5.64326 90.0694V90.2163C5.64326 100.847 14.0164 103.828 27.0159 106.583C37.7958 108.879 38.8117 110.409 38.8117 113.395V113.547C38.8117 116.683 35.3086 118.593 29.5025 118.593C22.1316 118.593 17.2472 116.07 11.4452 112.091L3.0542 120.43C10.7951 126.165 19.4585 129.001 29.226 129.001C43.1431 129.001 52.9113 123.033 52.9113 112.399V112.247C52.9113 102.911 45.5315 99.0094 32.4526 96.1783Z" fill="#1331A1"/>
<path d="M75.7267 81.5835C61.2535 81.5835 51.1458 91.9069 51.1458 104.434V104.594C51.1458 118.027 62.1801 127.282 77.1168 127.282C77.5452 127.282 78.9354 127.225 79.3632 127.216V117.208C79.0068 117.222 77.6698 117.289 77.2961 117.289C70.9859 117.289 66.5377 114.348 65.1392 108.691H99.4428C99.5233 107.539 99.6211 106.805 99.6211 105.572V105.417C99.6211 92.966 92.3223 81.5835 75.7267 81.5835ZM64.9611 100.918C66.0741 95.2664 69.8806 91.5731 75.7267 91.5731C81.6538 91.5731 85.3701 95.3425 86.208 100.918H64.9611Z" fill="#1331A1"/>
<path d="M144.354 103.231C144.354 91.355 137.081 82.0859 121.698 82.0859C106.297 82.0859 99.024 91.355 99.024 103.231V126.474H113.276V102.373C113.534 97.9763 115.263 92.7842 121.698 92.7842C128.114 92.7842 129.987 97.9763 130.236 102.373V126.474H144.354V103.231Z" fill="#1331A1"/>
<path d="M176.187 110.852C174.96 117.27 168.326 118.231 166.822 118.31C156.093 118.875 155.712 111.549 159.319 109.318C164.168 106.316 176.23 108.004 176.23 108.004C176.23 108.438 176.345 109.531 176.187 110.852ZM167.527 81.833C166.903 81.833 164.746 81.8413 164.156 81.8592V92.4812C166.903 92.5075 170.663 92.9697 172.338 93.8515C174.8 95.1457 176.077 97.3263 176.139 100.28C172.781 99.8867 168.975 99.6189 165.674 99.5345C152.214 99.1894 145.558 103.634 144.22 110.748C144.195 110.881 144.17 111.016 144.147 111.151C144.14 111.197 144.133 111.243 144.126 111.289C144.021 111.969 143.961 112.682 143.961 113.439V113.6C143.961 122.295 151.661 127.042 161.02 127.042C167.892 127.042 172.625 124.822 176.046 121.467V126.526H189.682V100.749C189.682 88.8672 182.909 81.833 167.527 81.833Z" fill="#1331A1"/>
</g>
</g>
<defs>
<clipPath id="clip0_198_313">
<rect width="242" height="129" fill="white"/>
</clipPath>
</defs>
</svg>
