<svg width="164" height="87" viewBox="0 0 164 87" fill="none" xmlns="http://www.w3.org/2000/svg">
<g clip-path="url(#clip0_49_489)">
<mask id="mask0_49_489" style="mask-type:luminance" maskUnits="userSpaceOnUse" x="0" y="0" width="164" height="87">
<path d="M0.5 87H163.5V0H0.5V87Z" fill="white"/>
</mask>
<g mask="url(#mask0_49_489)">
<path d="M103.337 1.54574C100.864 0.963484 98.3782 0.411316 95.809 0.0361156C95.7126 0.0212681 95.6047 0.0152488 95.5087 0C91.8589 2.69502 88.4971 5.66934 85.4718 8.86517C88.8215 8.37319 92.2433 8.061 95.7368 7.93499C107.934 7.48796 119.533 9.48676 130.002 13.2949C122.45 8.0939 113.338 3.99438 103.337 1.54574Z" fill="#F44528"/>
<path d="M97.8979 28.396C111.705 21.8807 126.161 19.1287 139.799 19.729C128.058 14.5433 114.581 11.8149 100.335 12.3313C93.312 12.5894 86.5283 13.6219 80.1047 15.3206C76.8991 19.6239 74.2518 24.2515 72.2406 29.1218C75.3383 32.1685 78.7181 35.0368 82.3559 37.6813C87.0987 34.1729 92.291 31.0456 97.8979 28.396Z" fill="#F44528"/>
<path d="M80.1048 15.3206C74.7625 16.731 69.6597 18.6035 64.8572 20.8843C69.7195 27.0785 75.5788 32.7595 82.3505 37.6813H82.3561C78.7182 35.034 75.3385 32.1685 72.2404 29.1223C74.2516 24.2543 76.8993 19.6267 80.1048 15.3206Z" fill="#F44528"/>
<path d="M82.3621 37.6843C78.7243 35.0435 75.3381 32.1682 72.2405 29.1221C69.3652 36.0788 67.7987 43.5302 67.7747 51.2614C71.9885 46.3123 76.8753 41.7509 82.3621 37.6843Z" fill="#F44528"/>
<path d="M151.025 79.7377C150.856 79.7413 150.689 79.7469 150.515 79.7469C143.509 79.7469 138.431 75.2634 138.431 69.0871V68.9491C138.431 63.0403 143.521 58.4126 150.016 58.4126C150.365 58.4126 150.701 58.4242 151.025 58.4427V51.3448C150.724 51.3328 150.413 51.3328 150.1 51.3328C137.374 51.3328 127.769 58.9588 127.769 69.0871V69.2164C127.769 79.096 137.506 86.8355 149.938 86.8355C150.316 86.8355 150.665 86.8263 151.025 86.8171V79.7377Z" fill="#F44528"/>
<path d="M22.3586 64.8644C14.8486 63.2626 13.7923 62.4941 13.7923 60.1205V60.0125C13.7923 58.2625 15.7191 56.8701 19.3779 56.8701C21.2445 56.8701 23.6823 57.3777 25.3933 58.0109V50.4415C23.8023 50.1658 21.3593 49.8503 19.5043 49.8503C10.6256 49.8503 4.30112 54.1867 4.30112 60.7445V60.8436C4.30112 68.0129 9.9409 70.0237 18.6967 71.8813C25.9576 73.4299 26.6419 74.462 26.6419 76.4756V76.5779C26.6419 78.6935 24.2823 79.9812 20.3716 79.9812C15.4069 79.9812 12.117 78.2797 8.20907 75.596L2.55725 81.2204C7.7712 85.0883 13.6064 87.0005 20.1853 87.0005C29.5593 87.0005 36.1387 82.976 36.1387 75.8038V75.7011C36.1387 69.4049 31.168 66.7738 22.3586 64.8644Z" fill="#F44528"/>
<path d="M51.506 55.0212C41.7576 55.0212 34.9495 61.9836 34.9495 70.4317V70.5397C34.9495 79.5991 42.3817 85.8415 52.4424 85.8415C52.7309 85.8415 53.6673 85.803 53.9555 85.7965V79.0474C53.7154 79.0565 52.8148 79.1015 52.5631 79.1015C48.3129 79.1015 45.3167 77.118 44.3748 73.3033H67.4801C67.5343 72.5261 67.6002 72.0309 67.6002 71.1999V71.0947C67.6002 62.6978 62.6841 55.0212 51.506 55.0212ZM44.2548 68.0606C45.0045 64.2492 47.5684 61.7584 51.506 61.7584C55.4983 61.7584 58.0014 64.3006 58.5657 68.0606H44.2548Z" fill="#F44528"/>
<path d="M97.73 69.621C97.73 61.6113 92.8316 55.3601 82.4703 55.3601C72.0966 55.3601 67.1981 61.6113 67.1981 69.621V85.2959H76.7977V69.0423C76.9714 66.0769 78.1357 62.5752 82.4703 62.5752C86.7921 62.5752 88.0531 66.0769 88.2213 69.0423V85.2959H97.73V69.621Z" fill="#F44528"/>
<path d="M119.172 74.7607C118.345 79.089 113.877 79.7374 112.864 79.7908C105.637 80.1716 105.38 75.231 107.81 73.7258C111.076 71.7017 119.201 72.8398 119.201 72.8398C119.201 73.1327 119.278 73.8699 119.172 74.7607ZM113.339 55.1897C112.918 55.1897 111.465 55.1953 111.068 55.2074V62.3711C112.918 62.3888 115.451 62.7005 116.579 63.2952C118.237 64.168 119.098 65.6387 119.139 67.6307C116.877 67.3654 114.314 67.1849 112.09 67.1279C103.024 66.8952 98.5412 69.8927 97.6404 74.6905C97.623 74.78 97.6066 74.871 97.5912 74.9626C97.5864 74.9934 97.5816 75.0243 97.5767 75.0557C97.5063 75.514 97.4658 75.9951 97.4658 76.5055V76.6138C97.4658 82.4778 102.652 85.6796 108.956 85.6796C113.584 85.6796 116.772 84.1824 119.076 81.9196V85.3317H128.261V67.9469C128.261 59.9337 123.699 55.1897 113.339 55.1897Z" fill="#F44528"/>
</g>
</g>
<defs>
<clipPath id="clip0_49_489">
<rect width="163" height="87" fill="white" transform="translate(0.5)"/>
</clipPath>
</defs>
</svg>
